<?xml version="1.0" encoding="UTF-8"?>
<?xml-stylesheet type="text/css" href="../../css/master.css" ?>
<svg id="svg__3D" width="933px" height="55px" viewBox="0 0 933 55" version="1.1" xmlns="http://www.w3.org/2000/svg" xmlns:xlink="http://www.w3.org/1999/xlink">
    <!-- Generator: Sketch 45.1 (43504) - http://www.bohemiancoding.com/sketch -->
    <title>3D</title>
    <desc>SVG Title 3D</desc>
    <defs></defs>
    <g id="font-images" stroke="none" stroke-width="1" fill="none" fill-rule="evenodd">
        <g id="3D" fill="#464C66">
            <path d="M9,45.1014286 L9,9.84571429 L19.3002921,9.84571429 C22.7894175,9.84571429 25.8980331,10.2157106 28.6262322,10.9557143 C31.3544313,11.695718 33.6557348,12.8057069 35.5302118,14.2857143 C37.4046887,15.7657217 38.8337239,17.6068938 39.8173604,19.8092857 C40.8009968,22.0116777 41.2928076,24.5576046 41.2928076,27.4471429 C41.2928076,30.3366811 40.8009968,32.882608 39.8173604,35.085 C38.8337239,37.287392 37.4046887,39.128564 35.5302118,40.6085714 C33.6557348,42.0885788 31.3544313,43.2073772 28.6262322,43.965 C25.8980331,44.7226228 22.7894175,45.1014286 19.3002921,45.1014286 L9,45.1014286 Z M20.8592552,35.0585714 C23.6431318,35.0585714 25.7959642,34.4331015 27.3178167,33.1821429 C28.8396693,31.9311842 29.6005842,30.0195367 29.6005842,27.4471429 C29.6005842,24.874749 28.8396693,22.9719109 27.3178167,21.7385714 C25.7959642,20.5052319 23.6431318,19.8885714 20.8592552,19.8885714 L20.8592552,35.0585714 Z M48.8092369,9.84571429 L70.690398,9.84571429 L70.690398,19.0957143 L60.6684922,19.0957143 L60.6684922,23.0071429 L70.5233662,23.0071429 L70.5233662,31.7814286 L60.6684922,31.7814286 L60.6684922,35.8514286 L71.0801387,35.8514286 L71.0801387,45.1014286 L48.8092369,45.1014286 L48.8092369,9.84571429 Z M77.3159912,34.16 C78.1325951,34.4066679 78.9863044,34.6004755 79.8771449,34.7414286 C80.619512,34.9176199 81.463942,35.0585709 82.41046,35.1642857 C83.3569781,35.2700005 84.3127614,35.3228571 85.2778386,35.3228571 C86.985283,35.3228571 87.8389923,34.7238155 87.8389923,33.5257143 C87.8389923,33.0676168 87.5791677,32.6007167 87.0595108,32.125 C86.5398538,31.6492833 85.8810129,31.1207172 85.0829682,30.5392857 C84.2849236,29.9578542 83.4312142,29.3147654 82.5218145,28.61 C81.6124148,27.9052346 80.7587055,27.0947665 79.9606608,26.1785714 C79.1626162,25.2623764 78.5037753,24.2316724 77.9841183,23.0864286 C77.4644613,21.9411848 77.2046367,20.6285788 77.2046367,19.1485714 C77.2046367,17.4923727 77.520138,16.0300063 78.1511501,14.7614286 C78.7821621,13.4928508 79.6544304,12.4357185 80.767981,11.59 C81.8815317,10.7442815 83.1899341,10.1011927 84.6932275,9.66071429 C86.1965208,9.22023589 87.8018656,9 89.50931,9 C90.4001505,9 91.2909777,9.04404718 92.1818182,9.13214286 C93.0726587,9.22023854 93.8706914,9.29952346 94.5759401,9.37 C95.3925439,9.47571481 96.1905766,9.58142804 96.9700621,9.68714286 L96.9700621,19.5714286 C96.6731152,19.5361903 96.339055,19.5009526 95.9678715,19.4657143 C95.6709246,19.430476 95.3368645,19.3952383 94.9656809,19.36 C94.5944974,19.3247617 94.2047605,19.3071429 93.7964586,19.3071429 C93.5737484,19.3071429 93.2953649,19.3159523 92.9612997,19.3335714 C92.6272345,19.3511906 92.3117333,19.3952377 92.0147864,19.4657143 C91.7178396,19.5361908 91.458015,19.6595229 91.2353049,19.8357143 C91.0125947,20.0119056 90.9012413,20.2585698 90.9012413,20.5757143 C90.9012413,20.8576205 91.1517865,21.2099979 91.6528843,21.6328571 C92.1539821,22.0557164 92.7664257,22.5490448 93.4902337,23.1128571 C94.2140416,23.6766695 95.0120743,24.3285677 95.8843556,25.0685714 C96.756637,25.8085751 97.5546696,26.654281 98.2784775,27.6057143 C99.0022855,28.5571476 99.6147291,29.6318988 100.115827,30.83 C100.616925,32.0281012 100.86747,33.3671355 100.86747,34.8471429 C100.86747,36.3976268 100.607645,37.8511837 100.087988,39.2078571 C99.5683313,40.5645306 98.7610192,41.744995 97.6660277,42.7492857 C96.5710363,43.7535765 95.1698394,44.5464257 93.462395,45.1278571 C91.7549507,45.7092886 89.7320307,46 87.3935743,46 C85.9830768,46 84.6746744,45.938334 83.4683279,45.815 C82.2619813,45.6916661 81.1948446,45.5419056 80.2668857,45.3657143 C79.1904534,45.1895229 78.2068318,44.9780965 77.3159912,44.7314286 L77.3159912,34.16 Z M107.827127,9.84571429 L120.410186,9.84571429 L120.410186,45.1014286 L107.827127,45.1014286 L107.827127,9.84571429 Z M152.424608,21.8442857 C151.756477,21.2804734 150.921327,20.848811 149.919131,20.5492857 C148.916935,20.2497604 147.933314,20.1 146.968237,20.1 C145.891804,20.1 144.908183,20.2849982 144.017342,20.655 C143.126502,21.0250019 142.356307,21.5359491 141.706736,22.1878571 C141.057165,22.8397652 140.546795,23.6238049 140.175612,24.54 C139.804428,25.4561951 139.618839,26.4428519 139.618839,27.5 C139.618839,28.5571481 139.822987,29.5438049 140.231289,30.46 C140.639591,31.3761951 141.196358,32.1602348 141.901606,32.8121429 C142.606855,33.4640509 143.432726,33.9749982 144.379244,34.345 C145.325762,34.7150019 146.337222,34.9 147.413655,34.9 C148.675679,34.9 149.82633,34.6445264 150.865644,34.1335714 C151.904958,33.6226165 152.795786,32.9266711 153.538153,32.0457143 L150.197517,32.0457143 L150.197517,24.6457143 L164.506572,24.6457143 L164.506572,36.38 C163.65285,37.8247691 162.63211,39.1373751 161.444323,40.3178571 C160.256535,41.4983392 158.929574,42.5114243 157.463399,43.3571429 C155.997224,44.2028614 154.410438,44.8547596 152.702994,45.3128571 C150.995549,45.7709547 149.232454,46 147.413655,46 C144.741133,46 142.217123,45.5242905 139.841548,44.5728571 C137.465973,43.6214238 135.396656,42.3176273 133.633534,40.6614286 C131.870412,39.0052298 130.478495,37.0495351 129.45774,34.7942857 C128.436985,32.5390363 127.926616,30.1076321 127.926616,27.5 C127.926616,24.9628445 128.409147,22.5666779 129.374224,20.3114286 C130.339301,18.0561792 131.666263,16.091675 133.355148,14.4178571 C135.044033,12.7440392 137.048394,11.4226239 139.368291,10.4535714 C141.688189,9.48451896 144.18436,9 146.856882,9 C148.93551,9 150.735723,9.19380759 152.257576,9.58142857 C153.779428,9.96904956 155.059992,10.4095213 156.099306,10.9028571 C157.324212,11.4666695 158.344951,12.08333 159.161555,12.7528571 L152.424608,21.8442857 Z M172.023001,9.84571429 L181.766521,9.84571429 L192.011135,23.43 L192.011135,9.84571429 L203.647682,9.84571429 L203.647682,45.1014286 L193.848485,45.1014286 L183.659547,31.57 L183.659547,45.1014286 L172.023001,45.1014286 L172.023001,9.84571429 Z M211.99927,9.84571429 L233.880431,9.84571429 L233.880431,19.0957143 L223.858525,19.0957143 L223.858525,23.0071429 L233.713399,23.0071429 L233.713399,31.7814286 L223.858525,31.7814286 L223.858525,35.8514286 L234.270172,35.8514286 L234.270172,45.1014286 L211.99927,45.1014286 L211.99927,9.84571429 Z M242.064987,9.84571429 L254.870756,9.84571429 C257.24633,9.84571429 259.44556,10.1452351 261.46851,10.7442857 C263.491461,11.3433363 265.245277,12.2242799 266.730011,13.3871429 C268.214745,14.5500058 269.374676,15.9859438 270.209839,17.695 C271.045002,19.4040562 271.462578,21.3685603 271.462578,23.5885714 C271.462578,25.350485 271.202753,26.8480891 270.683096,28.0814286 C270.163439,29.3147681 269.588113,30.3366626 268.957101,31.1471429 C268.214734,32.0633379 267.379584,32.8385683 266.451625,33.4728571 L273.411281,45.1014286 L259.491968,45.1014286 L253.924242,36.1685714 L253.924242,45.1014286 L242.064987,45.1014286 L242.064987,9.84571429 Z M253.924242,27.1828571 L254.536692,27.1828571 C255.94719,27.1828571 257.144239,26.8833363 258.127875,26.2842857 C259.111512,25.6852351 259.603322,24.6809594 259.603322,23.2714286 C259.603322,21.8618977 259.111512,20.857622 258.127875,20.2585714 C257.144239,19.6595208 255.94719,19.36 254.536692,19.36 L253.924242,19.36 L253.924242,27.1828571 Z M279.814166,36.2742857 L291.729098,36.2742857 L291.729098,45.1014286 L279.814166,45.1014286 L279.814166,36.2742857 Z M315.391931,45.1014286 L315.391931,9.84571429 L325.692223,9.84571429 C329.181349,9.84571429 332.289964,10.2157106 335.018164,10.9557143 C337.746363,11.695718 340.047666,12.8057069 341.922143,14.2857143 C343.79662,15.7657217 345.225655,17.6068938 346.209292,19.8092857 C347.192928,22.0116777 347.684739,24.5576046 347.684739,27.4471429 C347.684739,30.3366811 347.192928,32.882608 346.209292,35.085 C345.225655,37.287392 343.79662,39.128564 341.922143,40.6085714 C340.047666,42.0885788 337.746363,43.2073772 335.018164,43.965 C332.289964,44.7226228 329.181349,45.1014286 325.692223,45.1014286 L315.391931,45.1014286 Z M327.251187,35.0585714 C330.035063,35.0585714 332.187896,34.4331015 333.709748,33.1821429 C335.231601,31.9311842 335.992516,30.0195367 335.992516,27.4471429 C335.992516,24.874749 335.231601,22.9719109 333.709748,21.7385714 C332.187896,20.5052319 330.035063,19.8885714 327.251187,19.8885714 L327.251187,35.0585714 Z M355.201168,9.84571429 L377.082329,9.84571429 L377.082329,19.0957143 L367.060424,19.0957143 L367.060424,23.0071429 L376.915298,23.0071429 L376.915298,31.7814286 L367.060424,31.7814286 L367.060424,35.8514286 L377.47207,35.8514286 L377.47207,45.1014286 L355.201168,45.1014286 L355.201168,9.84571429 Z M395.177437,9.84571429 L401.468967,25.1742857 L407.816174,9.84571429 L420.788974,9.84571429 L406.312888,45.1014286 L396.680723,45.1014286 L382.204637,9.84571429 L395.177437,9.84571429 Z M426.078313,9.84571429 L447.959474,9.84571429 L447.959474,19.0957143 L437.937568,19.0957143 L437.937568,23.0071429 L447.792442,23.0071429 L447.792442,31.7814286 L437.937568,31.7814286 L437.937568,35.8514286 L448.349215,35.8514286 L448.349215,45.1014286 L426.078313,45.1014286 L426.078313,9.84571429 Z M456.144031,9.84571429 L468.504381,9.84571429 L468.504381,35.8514286 L478.748996,35.8514286 L478.748996,45.1014286 L456.144031,45.1014286 L456.144031,9.84571429 Z M482.646404,27.5 C482.646404,24.9628445 483.156774,22.5666779 484.177528,20.3114286 C485.198283,18.0561792 486.590201,16.091675 488.353322,14.4178571 C490.116444,12.7440392 492.185762,11.4226239 494.561336,10.4535714 C496.936911,9.48451896 499.460921,9 502.133443,9 C504.805964,9 507.329975,9.48451896 509.705549,10.4535714 C512.081124,11.4226239 514.150441,12.7440392 515.913563,14.4178571 C517.676685,16.091675 519.068603,18.0561792 520.089357,20.3114286 C521.110112,22.5666779 521.620482,24.9628445 521.620482,27.5 C521.620482,30.0371555 521.110112,32.4333221 520.089357,34.6885714 C519.068603,36.9438208 517.676685,38.908325 515.913563,40.5821429 C514.150441,42.2559608 512.081124,43.5773761 509.705549,44.5464286 C507.329975,45.515481 504.805964,46 502.133443,46 C499.460921,46 496.936911,45.515481 494.561336,44.5464286 C492.185762,43.5773761 490.116444,42.2559608 488.353322,40.5821429 C486.590201,38.908325 485.198283,36.9438208 484.177528,34.6885714 C483.156774,32.4333221 482.646404,30.0371555 482.646404,27.5 Z M494.338627,27.5 C494.338627,28.5219099 494.542775,29.4821384 494.951077,30.3807143 C495.359379,31.2792902 495.916146,32.06333 496.621395,32.7328571 C497.326643,33.4023843 498.152514,33.9309504 499.099032,34.3185714 C500.045551,34.7061924 501.057011,34.9 502.133443,34.9 C503.209875,34.9 504.221335,34.7061924 505.167853,34.3185714 C506.114371,33.9309504 506.940242,33.4023843 507.645491,32.7328571 C508.35074,32.06333 508.907507,31.2792902 509.315809,30.3807143 C509.724111,29.4821384 509.928258,28.5219099 509.928258,27.5 C509.928258,26.4780901 509.724111,25.5178616 509.315809,24.6192857 C508.907507,23.7207098 508.35074,22.93667 507.645491,22.2671429 C506.940242,21.5976157 506.114371,21.0690496 505.167853,20.6814286 C504.221335,20.2938076 503.209875,20.1 502.133443,20.1 C501.057011,20.1 500.045551,20.2938076 499.099032,20.6814286 C498.152514,21.0690496 497.326643,21.5976157 496.621395,22.2671429 C495.916146,22.93667 495.359379,23.7207098 494.951077,24.6192857 C494.542775,25.5178616 494.338627,26.4780901 494.338627,27.5 Z M558.033406,23.2714286 C558.033406,25.7028693 557.587993,27.7730867 556.697152,29.4821429 C555.806312,31.191199 554.590704,32.5742804 553.050292,33.6314286 C551.50988,34.6885767 549.709667,35.4638071 547.649598,35.9571429 C545.58953,36.4504787 543.371741,36.6971429 540.996166,36.6971429 L540.996166,45.1014286 L529.136911,45.1014286 L529.136911,9.84571429 L540.996166,9.84571429 C543.371741,9.84571429 545.58953,10.0923785 547.649598,10.5857143 C549.709667,11.0790501 551.50988,11.8542804 553.050292,12.9114286 C554.590704,13.9685767 555.806312,15.3516581 556.697152,17.0607143 C557.587993,18.7697705 558.033406,20.8399878 558.033406,23.2714286 Z M540.996166,27.1828571 L541.497262,27.1828571 C543.056233,27.1828571 544.179046,26.8392892 544.865736,26.1521429 C545.552425,25.4649966 545.895765,24.5047681 545.895765,23.2714286 C545.895765,22.0380891 545.552425,21.0778606 544.865736,20.3907143 C544.179046,19.703568 543.056233,19.36 541.497262,19.36 L540.996166,19.36 L540.996166,27.1828571 Z M565.271449,9.84571429 L587.15261,9.84571429 L587.15261,19.0957143 L577.130705,19.0957143 L577.130705,23.0071429 L586.985579,23.0071429 L586.985579,31.7814286 L577.130705,31.7814286 L577.130705,35.8514286 L587.542351,35.8514286 L587.542351,45.1014286 L565.271449,45.1014286 L565.271449,9.84571429 Z M595.337167,9.84571429 L608.142935,9.84571429 C610.51851,9.84571429 612.71774,10.1452351 614.74069,10.7442857 C616.76364,11.3433363 618.517456,12.2242799 620.002191,13.3871429 C621.486925,14.5500058 622.646856,15.9859438 623.482019,17.695 C624.317182,19.4040562 624.734757,21.3685603 624.734757,23.5885714 C624.734757,25.350485 624.474933,26.8480891 623.955276,28.0814286 C623.435619,29.3147681 622.860293,30.3366626 622.229281,31.1471429 C621.486914,32.0633379 620.651763,32.8385683 619.723804,33.4728571 L626.683461,45.1014286 L612.764147,45.1014286 L607.196422,36.1685714 L607.196422,45.1014286 L595.337167,45.1014286 L595.337167,9.84571429 Z M607.196422,27.1828571 L607.808872,27.1828571 C609.219369,27.1828571 610.416418,26.8833363 611.400055,26.2842857 C612.383691,25.6852351 612.875502,24.6809594 612.875502,23.2714286 C612.875502,21.8618977 612.383691,20.857622 611.400055,20.2585714 C610.416418,19.6595208 609.219369,19.36 607.808872,19.36 L607.196422,19.36 L607.196422,27.1828571 Z M633.086345,36.2742857 L645.001278,36.2742857 L645.001278,45.1014286 L633.086345,45.1014286 L633.086345,36.2742857 Z M668.664111,45.1014286 L668.664111,9.84571429 L678.964403,9.84571429 C682.453528,9.84571429 685.562144,10.2157106 688.290343,10.9557143 C691.018542,11.695718 693.319846,12.8057069 695.194323,14.2857143 C697.0688,15.7657217 698.497835,17.6068938 699.481471,19.8092857 C700.465108,22.0116777 700.956919,24.5576046 700.956919,27.4471429 C700.956919,30.3366811 700.465108,32.882608 699.481471,35.085 C698.497835,37.287392 697.0688,39.128564 695.194323,40.6085714 C693.319846,42.0885788 691.018542,43.2073772 688.290343,43.965 C685.562144,44.7226228 682.453528,45.1014286 678.964403,45.1014286 L668.664111,45.1014286 Z M680.523366,35.0585714 C683.307243,35.0585714 685.460075,34.4331015 686.981928,33.1821429 C688.50378,31.9311842 689.264695,30.0195367 689.264695,27.4471429 C689.264695,24.874749 688.50378,22.9719109 686.981928,21.7385714 C685.460075,20.5052319 683.307243,19.8885714 680.523366,19.8885714 L680.523366,35.0585714 Z M708.473348,9.84571429 L721.279116,9.84571429 C723.654691,9.84571429 725.853921,10.1452351 727.876871,10.7442857 C729.899821,11.3433363 731.653637,12.2242799 733.138372,13.3871429 C734.623106,14.5500058 735.783037,15.9859438 736.6182,17.695 C737.453363,19.4040562 737.870938,21.3685603 737.870938,23.5885714 C737.870938,25.350485 737.611114,26.8480891 737.091457,28.0814286 C736.5718,29.3147681 735.996474,30.3366626 735.365462,31.1471429 C734.623095,32.0633379 733.787944,32.8385683 732.859985,33.4728571 L739.819642,45.1014286 L725.900329,45.1014286 L720.332603,36.1685714 L720.332603,45.1014286 L708.473348,45.1014286 L708.473348,9.84571429 Z M720.332603,27.1828571 L720.945053,27.1828571 C722.35555,27.1828571 723.552599,26.8833363 724.536236,26.2842857 C725.519872,25.6852351 726.011683,24.6809594 726.011683,23.2714286 C726.011683,21.8618977 725.519872,20.857622 724.536236,20.2585714 C723.552599,19.6595208 722.35555,19.36 720.945053,19.36 L720.332603,19.36 L720.332603,27.1828571 Z M745.387368,9.84571429 L767.268529,9.84571429 L767.268529,19.0957143 L757.246623,19.0957143 L757.246623,23.0071429 L767.101497,23.0071429 L767.101497,31.7814286 L757.246623,31.7814286 L757.246623,35.8514286 L767.658269,35.8514286 L767.658269,45.1014286 L745.387368,45.1014286 L745.387368,9.84571429 Z M787.033954,9.84571429 L795.942315,9.84571429 L810.02866,45.1014286 L798.336437,45.1014286 L797.111537,41.93 L785.864732,41.93 L784.639832,45.1014286 L772.947609,45.1014286 L787.033954,9.84571429 Z M793.993611,34.16 L791.488134,27.9757143 L788.982658,34.16 L793.993611,34.16 Z M815.317999,9.84571429 L825.117196,9.84571429 L834.805038,23.3771429 L844.437203,9.84571429 L854.2364,9.84571429 L854.2364,45.1014286 L842.377145,45.1014286 L842.377145,32.4157143 L834.805038,42.9871429 L827.177254,32.4157143 L827.177254,45.1014286 L815.317999,45.1014286 L815.317999,9.84571429 Z M862.587988,9.84571429 L884.469149,9.84571429 L884.469149,19.0957143 L874.447244,19.0957143 L874.447244,23.0071429 L884.302118,23.0071429 L884.302118,31.7814286 L874.447244,31.7814286 L874.447244,35.8514286 L884.85889,35.8514286 L884.85889,45.1014286 L862.587988,45.1014286 L862.587988,9.84571429 Z M892.653706,9.84571429 L905.459474,9.84571429 C907.835049,9.84571429 910.034279,10.1452351 912.057229,10.7442857 C914.080179,11.3433363 915.833995,12.2242799 917.318729,13.3871429 C918.803464,14.5500058 919.963395,15.9859438 920.798558,17.695 C921.633721,19.4040562 922.051296,21.3685603 922.051296,23.5885714 C922.051296,25.350485 921.791472,26.8480891 921.271815,28.0814286 C920.752158,29.3147681 920.176832,30.3366626 919.54582,31.1471429 C918.803453,32.0633379 917.968302,32.8385683 917.040343,33.4728571 L924,45.1014286 L910.080686,45.1014286 L904.512961,36.1685714 L904.512961,45.1014286 L892.653706,45.1014286 L892.653706,9.84571429 Z M904.512961,27.1828571 L905.125411,27.1828571 C906.535908,27.1828571 907.732957,26.8833363 908.716594,26.2842857 C909.70023,25.6852351 910.192041,24.6809594 910.192041,23.2714286 C910.192041,21.8618977 909.70023,20.857622 908.716594,20.2585714 C907.732957,19.6595208 906.535908,19.36 905.125411,19.36 L904.512961,19.36 L904.512961,27.1828571 Z"></path>
        </g>
    </g>
</svg>
