<?xml version="1.0" encoding="UTF-8"?>
<?xml-stylesheet type="text/css" href="../../css/master.css" ?>
<svg id="svg_hello" width="933px" height="249px" viewBox="0 0 933 249" version="1.1" xmlns="http://www.w3.org/2000/svg" xmlns:xlink="http://www.w3.org/1999/xlink">
    <!-- Generator: Sketch 45.1 (43504) - http://www.bohemiancoding.com/sketch -->
    <title>hello</title>
    <desc>SVG Title Hello</desc>
    <defs></defs>
    <g id="font-images" stroke="none" stroke-width="1" fill="none" fill-rule="evenodd">
        <g id="hello" fill="#6882F0">
            <path d="M9,14.28 L79.0585134,14.28 L79.0585134,89.19 L118.199185,89.19 L118.199185,14.28 L188.586612,14.28 L188.586612,234.39 L118.199185,234.39 L118.199185,152.88 L79.0585134,152.88 L79.0585134,234.39 L9,234.39 L9,14.28 Z M50.4430643,207.99 L50.4430643,124.5 L147.143548,124.5 L147.143548,207.99 L155.695291,207.99 L155.695291,40.68 L147.143548,40.68 L147.143548,116.58 L50.4430643,116.58 L50.4430643,40.68 L41.8913208,40.68 L41.8913208,207.99 L50.4430643,207.99 Z M223.031134,14.28 L352.294025,14.28 L352.294025,72.03 L293.089647,72.03 L293.089647,96.45 L351.307285,96.45 L351.307285,151.23 L293.089647,151.23 L293.089647,176.64 L354.596417,176.64 L354.596417,234.39 L223.031134,234.39 L223.031134,14.28 Z M330.25684,207.99 L330.25684,200.07 L264.474198,200.07 L264.474198,127.8 L326.967708,127.8 L326.967708,119.88 L264.474198,119.88 L264.474198,48.6 L330.25684,48.6 L330.25684,40.68 L255.922455,40.68 L255.922455,207.99 L330.25684,207.99 Z M385.751807,14.28 L458.77054,14.28 L458.77054,176.64 L519.29057,176.64 L519.29057,234.39 L385.751807,234.39 L385.751807,14.28 Z M500.87143,207.99 L500.87143,200.07 L427.194872,200.07 L427.194872,40.68 L418.643128,40.68 L418.643128,207.99 L500.87143,207.99 Z M542.22313,14.28 L615.241862,14.28 L615.241862,176.64 L675.761892,176.64 L675.761892,234.39 L542.22313,234.39 L542.22313,14.28 Z M657.342753,207.99 L657.342753,200.07 L583.666194,200.07 L583.666194,40.68 L575.114451,40.68 L575.114451,207.99 L657.342753,207.99 Z M693.760754,124.5 C693.760754,108.659921 696.775762,93.7000704 702.805867,79.62 C708.835973,65.5399296 717.058721,53.2750522 727.474358,42.825 C737.889995,32.3749477 750.11448,24.1250303 764.148181,18.075 C778.181881,12.0249698 793.092464,9 808.880377,9 C824.66829,9 839.578873,12.0249698 853.612573,18.075 C867.646274,24.1250303 879.870759,32.3749477 890.286396,42.825 C900.702033,53.2750522 908.924781,65.5399296 914.954887,79.62 C920.984992,93.7000704 924,108.659921 924,124.5 C924,140.340079 920.984992,155.29993 914.954887,169.38 C908.924781,183.46007 900.702033,195.724948 890.286396,206.175 C879.870759,216.625052 867.646274,224.87497 853.612573,230.925 C839.578873,236.97503 824.66829,240 808.880377,240 C793.092464,240 778.181881,236.97503 764.148181,230.925 C750.11448,224.87497 737.889995,216.625052 727.474358,206.175 C717.058721,195.724948 708.835973,183.46007 702.805867,169.38 C696.775762,155.29993 693.760754,140.340079 693.760754,124.5 Z M724.678596,124.5 C724.678596,136.160058 726.871328,147.104949 731.25686,157.335 C735.642391,167.565051 741.672406,176.529961 749.347086,184.23 C757.021766,191.930038 765.957152,197.979978 776.153513,202.38 C786.349873,206.780022 797.258719,208.98 808.880377,208.98 C820.502035,208.98 831.410881,206.780022 841.607241,202.38 C851.803602,197.979978 860.738988,191.930038 868.413668,184.23 C876.088348,176.529961 882.118363,167.565051 886.503894,157.335 C890.889426,147.104949 893.082158,136.160058 893.082158,124.5 C893.082158,112.839942 890.889426,101.895051 886.503894,91.665 C882.118363,81.4349488 876.088348,72.4700385 868.413668,64.77 C860.738988,57.0699615 851.803602,51.020022 841.607241,46.62 C831.410881,42.219978 820.502035,40.02 808.880377,40.02 C797.258719,40.02 786.349873,42.219978 776.153513,46.62 C765.957152,51.020022 757.021766,57.0699615 749.347086,64.77 C741.672406,72.4700385 735.642391,81.4349488 731.25686,91.665 C726.871328,101.895051 724.678596,112.839942 724.678596,124.5 Z M762.832528,124.5 C762.832528,130.880032 764.038531,136.874972 766.450573,142.485 C768.862615,148.095028 772.151715,152.989979 776.317969,157.17 C780.484224,161.350021 785.363055,164.649988 790.954607,167.07 C796.54616,169.490012 802.521357,170.7 808.880377,170.7 C815.239398,170.7 821.214594,169.490012 826.806147,167.07 C832.397699,164.649988 837.27653,161.350021 841.442785,157.17 C845.609039,152.989979 848.898139,148.095028 851.310181,142.485 C853.722223,136.874972 854.928226,130.880032 854.928226,124.5 C854.928226,118.119968 853.722223,112.125028 851.310181,106.515 C848.898139,100.904972 845.609039,96.0100209 841.442785,91.83 C837.27653,87.6499791 832.397699,84.3500121 826.806147,81.93 C821.214594,79.5099879 815.239398,78.3 808.880377,78.3 C802.521357,78.3 796.54616,79.5099879 790.954607,81.93 C785.363055,84.3500121 780.484224,87.6499791 776.317969,91.83 C772.151715,96.0100209 768.862615,100.904972 766.450573,106.515 C764.038531,112.125028 762.832528,118.119968 762.832528,124.5 Z M808.880377,200.4 C798.355102,200.4 788.542622,198.42002 779.442645,194.46 C770.342667,190.49998 762.339193,185.055035 755.431981,178.125 C748.524769,171.194965 743.097755,163.165046 739.150777,154.035 C735.203799,144.904954 733.230339,135.060053 733.230339,124.5 C733.230339,113.939947 735.203799,104.095046 739.150777,94.965 C743.097755,85.8349543 748.524769,77.8050346 755.431981,70.875 C762.339193,63.9449653 770.342667,58.5000198 779.442645,54.54 C788.542622,50.5799802 798.355102,48.6 808.880377,48.6 C819.405652,48.6 829.218132,50.5799802 838.318109,54.54 C847.418087,58.5000198 855.421562,63.9449653 862.328773,70.875 C869.235985,77.8050346 874.662999,85.8349543 878.609977,94.965 C882.556955,104.095046 884.530415,113.939947 884.530415,124.5 C884.530415,135.060053 882.556955,144.904954 878.609977,154.035 C874.662999,163.165046 869.235985,171.194965 862.328773,178.125 C855.421562,185.055035 847.418087,190.49998 838.318109,194.46 C829.218132,198.42002 819.405652,200.4 808.880377,200.4 Z"></path>
        </g>
    </g>
</svg>
