<?xml version="1.0" encoding="UTF-8"?>
<?xml-stylesheet type="text/css" href="../../css/master.css" ?>
<svg id="svg__name" width="908px" height="91px" viewBox="0 0 908 91" version="1.1" xmlns="http://www.w3.org/2000/svg" xmlns:xlink="http://www.w3.org/1999/xlink">
    <!-- Generator: Sketch 45.1 (43504) - http://www.bohemiancoding.com/sketch -->
    <title>name</title>
    <desc>SVG Title Name</desc>
    <defs></defs>
    <g id="font-images" stroke="none" stroke-width="1" fill="none" fill-rule="evenodd">
        <g id="name" fill="#6882F0">
            <path d="M9,10.6685714 L34.1582239,10.6685714 L34.1582239,80.2271429 L9,80.2271429 L9,10.6685714 Z M54.4183865,10.6685714 L75.5691057,10.6685714 L63.6579112,38.8257143 L44.7335835,38.8257143 L54.4183865,10.6685714 Z M86.1444653,10.6685714 L105.73671,10.6685714 L125.106316,37.3657143 L144.364603,10.6685714 L163.956848,10.6685714 L163.956848,80.2271429 L140.245779,80.2271429 L140.245779,55.1985714 L125.106316,76.0557143 L109.855535,55.1985714 L109.855535,80.2271429 L86.1444653,80.2271429 L86.1444653,10.6685714 Z M207.371482,10.6685714 L251.120075,10.6685714 L251.120075,28.9185714 L231.082552,28.9185714 L231.082552,36.6357143 L250.786116,36.6357143 L250.786116,53.9471429 L231.082552,53.9471429 L231.082552,61.9771429 L251.899312,61.9771429 L251.899312,80.2271429 L207.371482,80.2271429 L207.371482,10.6685714 Z M243.661664,71.8842857 L243.661664,69.3814286 L221.397749,69.3814286 L221.397749,46.5428571 L242.548468,46.5428571 L242.548468,44.04 L221.397749,44.04 L221.397749,21.5142857 L243.661664,21.5142857 L243.661664,19.0114286 L218.50344,19.0114286 L218.50344,71.8842857 L243.661664,71.8842857 Z M288.412133,56.0328571 C291.306456,56.0328571 294.126524,55.7547647 296.87242,55.1985714 L307.44778,71.8842857 L310.898687,71.8842857 L299.766729,54.3642857 C303.774254,53.0433267 306.965383,51.0097756 309.340213,48.2635714 C311.715042,45.5173672 312.902439,41.9543076 312.902439,37.5742857 C312.902439,34.5152228 312.271634,31.8385829 311.010006,29.5442857 C309.748378,27.2499885 308.022942,25.3207221 305.833646,23.7564286 C303.64435,22.192135 301.065472,21.0102421 298.096936,20.2107143 C295.128399,19.4111865 291.900163,19.0114286 288.412133,19.0114286 L276.389619,19.0114286 L276.389619,71.8842857 L279.283927,71.8842857 L279.283927,56.0328571 L288.412133,56.0328571 Z M279.283927,53.53 L279.283927,21.5142857 L288.412133,21.5142857 C295.165554,21.5142857 300.453181,22.904748 304.275172,25.6857143 C308.097163,28.4666806 310.00813,32.4294981 310.00813,37.5742857 C310.00813,42.7190733 308.097163,46.6645101 304.275172,49.4107143 C300.453181,52.1569185 295.165554,53.53 288.412133,53.53 L279.283927,53.53 Z M265.257661,10.6685714 L290.861163,10.6685714 C295.610822,10.6685714 300.007901,11.2595179 304.052533,12.4414286 C308.097164,13.6233392 311.603696,15.3614171 314.572233,17.6557143 C317.540769,19.9500115 319.859904,22.7830784 321.529706,26.155 C323.199508,29.5269216 324.034396,33.4028352 324.034396,37.7828571 C324.034396,41.259065 323.51491,44.2137974 322.475922,46.6471429 C321.436935,49.0804884 320.286644,51.0966587 319.025016,52.6957143 C317.540747,54.5033424 315.87097,56.0328509 314.015635,57.2842857 L327.930582,80.2271429 L300.100688,80.2271429 L288.96873,62.6028571 L288.96873,80.2271429 L265.257661,80.2271429 L265.257661,10.6685714 Z M288.96873,44.8742857 L290.193246,44.8742857 C293.013356,44.8742857 295.406703,44.2833392 297.373358,43.1014286 C299.340014,41.9195179 300.323327,39.9381091 300.323327,37.1571429 C300.323327,34.3761766 299.340014,32.3947678 297.373358,31.2128571 C295.406703,30.0309465 293.013356,29.44 290.193246,29.44 L288.96873,29.44 L288.96873,44.8742857 Z M336.836148,10.6685714 L361.994371,10.6685714 L361.994371,80.2271429 L336.836148,80.2271429 L336.836148,10.6685714 Z M350.862414,71.8842857 L350.862414,19.0114286 L347.968105,19.0114286 L347.968105,71.8842857 L350.862414,71.8842857 Z M376.465916,10.6685714 L400.510944,10.6685714 L400.510944,26.7285714 L414.537211,10.6685714 L443.59162,10.6685714 L417.43152,42.4757143 L444.927455,80.2271429 L416.318324,80.2271429 L400.510944,58.7442857 L400.510944,80.2271429 L376.465916,80.2271429 L376.465916,10.6685714 Z M390.492183,71.8842857 L390.492183,57.8057143 L402.069418,44.3528571 L422.329581,71.8842857 L425.780488,71.8842857 L404.073171,42.1628571 L423.999375,19.0114286 L420.437148,19.0114286 L390.492183,53.6342857 L390.492183,19.0114286 L387.597874,19.0114286 L387.597874,71.8842857 L390.492183,71.8842857 Z M504.817386,10.6685714 L522.628518,10.6685714 L550.79237,80.2271429 L527.41526,80.2271429 L524.966229,73.97 L502.479675,73.97 L500.030644,80.2271429 L476.653533,80.2271429 L504.817386,10.6685714 Z M518.732333,58.64 L513.722952,46.4385714 L508.713571,58.64 L518.732333,58.64 Z M493.24015,71.8842857 L495.355222,66.67 L532.090682,66.67 L534.205754,71.8842857 L537.322702,71.8842857 L515.838024,19.0114286 L511.60788,19.0114286 L490.123202,71.8842857 L493.24015,71.8842857 Z M513.722952,21.5142857 L531.088806,64.1671429 L496.357098,64.1671429 L513.722952,21.5142857 Z M616.916198,37.1571429 C616.916198,41.9543097 616.02565,46.0387927 614.244528,49.4107143 C612.463406,52.7826359 610.032953,55.5114181 606.953096,57.5971429 C603.873239,59.6828676 600.273942,61.2123761 596.155097,62.1857143 C592.036252,63.1590525 587.602067,63.6457143 582.852408,63.6457143 L582.852408,80.2271429 L559.141338,80.2271429 L559.141338,10.6685714 L582.852408,10.6685714 C587.602067,10.6685714 592.036252,11.1552332 596.155097,12.1285714 C600.273942,13.1019096 603.873239,14.6314181 606.953096,16.7171429 C610.032953,18.8028676 612.463406,21.5316498 614.244528,24.9035714 C616.02565,28.2754931 616.916198,32.359976 616.916198,37.1571429 Z M606.118199,37.1571429 C606.118199,34.0285558 605.543053,31.3171543 604.392745,29.0228571 C603.242437,26.72856 601.62832,24.8514359 599.550344,23.3914286 C597.472368,21.9314213 595.004809,20.8364322 592.147592,20.1064286 C589.290376,19.3764249 586.192012,19.0114286 582.852408,19.0114286 L570.273296,19.0114286 L570.273296,71.8842857 L573.167605,71.8842857 L573.167605,55.3028571 L582.852408,55.3028571 C586.192012,55.3028571 589.290376,54.9378608 592.147592,54.2078571 C595.004809,53.4778535 597.472368,52.3828644 599.550344,50.9228571 C601.62832,49.4628498 603.242437,47.5857258 604.392745,45.2914286 C605.543053,42.9971314 606.118199,40.2857299 606.118199,37.1571429 Z M603.001251,37.1571429 C603.001251,40.1466816 602.444658,42.6495137 601.331457,44.6657143 C600.218256,46.6819148 598.73401,48.2809465 596.878674,49.4628571 C595.023339,50.6447678 592.889735,51.496426 590.477799,52.0178571 C588.065862,52.5392883 585.524091,52.8 582.852408,52.8 L573.167605,52.8 L573.167605,21.5142857 L582.852408,21.5142857 C585.524091,21.5142857 588.065862,21.7749974 590.477799,22.2964286 C592.889735,22.8178597 595.023339,23.6695179 596.878674,24.8514286 C598.73401,26.0333392 600.218256,27.6323709 601.331457,29.6485714 C602.444658,31.664772 603.001251,34.1676041 603.001251,37.1571429 Z M582.852408,44.8742857 L583.854284,44.8742857 C586.971248,44.8742857 589.21617,44.1964354 590.589118,42.8407143 C591.962066,41.4849932 592.64853,39.5904884 592.64853,37.1571429 C592.64853,34.7237974 591.962066,32.8292925 590.589118,31.4735714 C589.21617,30.1178504 586.971248,29.44 583.854284,29.44 L582.852408,29.44 L582.852408,44.8742857 Z M627.491557,45.5 C627.491557,40.4942607 628.511976,35.7666889 630.552846,31.3171429 C632.593715,26.8675968 635.376676,22.9916832 638.901814,19.6892857 C642.426951,16.3868882 646.564287,13.7797715 651.313946,11.8678571 C656.063605,9.95594282 661.110042,9 666.453408,9 C671.796775,9 676.843212,9.95594282 681.592871,11.8678571 C686.342529,13.7797715 690.479866,16.3868882 694.005003,19.6892857 C697.530141,22.9916832 700.313102,26.8675968 702.353971,31.3171429 C704.39484,35.7666889 705.41526,40.4942607 705.41526,45.5 C705.41526,50.5057393 704.39484,55.2333111 702.353971,59.6828571 C700.313102,64.1324032 697.530141,68.0083168 694.005003,71.3107143 C690.479866,74.6131117 686.342529,77.2202285 681.592871,79.1321429 C676.843212,81.0440572 671.796775,82 666.453408,82 C661.110042,82 656.063605,81.0440572 651.313946,79.1321429 C646.564287,77.2202285 642.426951,74.6131117 638.901814,71.3107143 C635.376676,68.0083168 632.593715,64.1324032 630.552846,59.6828571 C628.511976,55.2333111 627.491557,50.5057393 627.491557,45.5 Z M637.955597,45.5 C637.955597,49.1847803 638.69772,52.6435553 640.181989,55.8764286 C641.666257,59.1093019 643.707096,61.9423688 646.304565,64.3757143 C648.902035,66.8090598 651.926187,68.7209454 655.377111,70.1114286 C658.828035,71.5019117 662.520097,72.1971429 666.453408,72.1971429 C670.38672,72.1971429 674.078782,71.5019117 677.529706,70.1114286 C680.98063,68.7209454 684.004782,66.8090598 686.602251,64.3757143 C689.199721,61.9423688 691.24056,59.1093019 692.724828,55.8764286 C694.209096,52.6435553 694.95122,49.1847803 694.95122,45.5 C694.95122,41.8152197 694.209096,38.3564447 692.724828,35.1235714 C691.24056,31.8906981 689.199721,29.0576312 686.602251,26.6242857 C684.004782,24.1909402 680.98063,22.2790546 677.529706,20.8885714 C674.078782,19.4980883 670.38672,18.8028571 666.453408,18.8028571 C662.520097,18.8028571 658.828035,19.4980883 655.377111,20.8885714 C651.926187,22.2790546 648.902035,24.1909402 646.304565,26.6242857 C643.707096,29.0576312 641.666257,31.8906981 640.181989,35.1235714 C638.69772,38.3564447 637.955597,41.8152197 637.955597,45.5 Z M650.868668,45.5 C650.868668,47.5162006 651.276836,49.4107054 652.093183,51.1835714 C652.909531,52.9564374 654.022715,54.5033267 655.43277,55.8242857 C656.842825,57.1452447 658.494049,58.1880914 660.386492,58.9528571 C662.278934,59.7176229 664.301219,60.1 666.453408,60.1 C668.605598,60.1 670.627883,59.7176229 672.520325,58.9528571 C674.412767,58.1880914 676.063991,57.1452447 677.474046,55.8242857 C678.884101,54.5033267 679.997286,52.9564374 680.813634,51.1835714 C681.629981,49.4107054 682.038149,47.5162006 682.038149,45.5 C682.038149,43.4837994 681.629981,41.5892946 680.813634,39.8164286 C679.997286,38.0435626 678.884101,36.4966733 677.474046,35.1757143 C676.063991,33.8547553 674.412767,32.8119086 672.520325,32.0471429 C670.627883,31.2823771 668.605598,30.9 666.453408,30.9 C664.301219,30.9 662.278934,31.2823771 660.386492,32.0471429 C658.494049,32.8119086 656.842825,33.8547553 655.43277,35.1757143 C654.022715,36.4966733 652.909531,38.0435626 652.093183,39.8164286 C651.276836,41.5892946 650.868668,43.4837994 650.868668,45.5 Z M666.453408,69.4857143 C662.891164,69.4857143 659.570163,68.8600063 656.490306,67.6085714 C653.410449,66.3571366 650.7017,64.6364395 648.363977,62.4464286 C646.026255,60.2564176 644.1895,57.718824 642.853659,54.8335714 C641.517817,51.9483189 640.849906,48.8371595 640.849906,45.5 C640.849906,42.1628405 641.517817,39.0516811 642.853659,36.1664286 C644.1895,33.2811761 646.026255,30.7435824 648.363977,28.5535714 C650.7017,26.3635605 653.410449,24.6428634 656.490306,23.3914286 C659.570163,22.1399937 662.891164,21.5142857 666.453408,21.5142857 C670.015653,21.5142857 673.336653,22.1399937 676.41651,23.3914286 C679.496367,24.6428634 682.205117,26.3635605 684.542839,28.5535714 C686.880562,30.7435824 688.717317,33.2811761 690.053158,36.1664286 C691.389,39.0516811 692.056911,42.1628405 692.056911,45.5 C692.056911,48.8371595 691.389,51.9483189 690.053158,54.8335714 C688.717317,57.718824 686.880562,60.2564176 684.542839,62.4464286 C682.205117,64.6364395 679.496367,66.3571366 676.41651,67.6085714 C673.336653,68.8600063 670.015653,69.4857143 666.453408,69.4857143 Z M718.217011,10.6685714 L737.697936,10.6685714 L758.180738,37.47 L758.180738,10.6685714 L781.446529,10.6685714 L781.446529,80.2271429 L761.854284,80.2271429 L741.482802,53.53 L741.482802,80.2271429 L718.217011,80.2271429 L718.217011,10.6685714 Z M731.46404,71.8842857 L731.46404,23.7042857 L768.1995,71.8842857 L771.093809,71.8842857 L771.093809,19.0114286 L768.1995,19.0114286 L768.1995,67.1914286 L731.46404,19.0114286 L728.569731,19.0114286 L728.569731,71.8842857 L731.46404,71.8842857 Z M805.714196,28.9185714 L792.021889,28.9185714 L792.021889,10.6685714 L843.896811,10.6685714 L843.896811,28.9185714 L830.204503,28.9185714 L830.204503,80.2271429 L805.714196,80.2271429 L805.714196,28.9185714 Z M819.406504,71.8842857 L819.406504,21.5142857 L835.325203,21.5142857 L835.325203,19.0114286 L800.593496,19.0114286 L800.593496,21.5142857 L816.512195,21.5142857 L816.512195,71.8842857 L819.406504,71.8842857 Z M854.47217,10.6685714 L898.220763,10.6685714 L898.220763,28.9185714 L878.18324,28.9185714 L878.18324,36.6357143 L897.886804,36.6357143 L897.886804,53.9471429 L878.18324,53.9471429 L878.18324,61.9771429 L899,61.9771429 L899,80.2271429 L854.47217,80.2271429 L854.47217,10.6685714 Z M890.762351,71.8842857 L890.762351,69.3814286 L868.498437,69.3814286 L868.498437,46.5428571 L889.649156,46.5428571 L889.649156,44.04 L868.498437,44.04 L868.498437,21.5142857 L890.762351,21.5142857 L890.762351,19.0114286 L865.604128,19.0114286 L865.604128,71.8842857 L890.762351,71.8842857 Z"></path>
        </g>
    </g>
</svg>
