<?xml version="1.0" encoding="UTF-8"?>
<?xml-stylesheet type="text/css" href="../../css/master.css" ?>
<svg id="svg__num-two" width="150px" height="204px" viewBox="0 0 150 204" version="1.1" xmlns="http://www.w3.org/2000/svg" xmlns:xlink="http://www.w3.org/1999/xlink">
    <!-- Generator: Sketch 45.1 (43504) - http://www.bohemiancoding.com/sketch -->
    <title>num-02</title>
    <desc>Decorative Number 2</desc>
    <defs></defs>
    <g id="font-images" stroke="none" stroke-width="1" fill="none" fill-rule="evenodd">
        <g id="num-02" fill="#464C66">
            <path d="M58.3438202,107.082718 C62.6224933,99.7562411 65.3730276,94.2614659 66.5955056,90.5982275 C67.8179836,86.9349891 68.4292135,83.4549648 68.4292135,80.1580502 C68.4292135,67.8862016 60.075739,61.7503693 43.3685393,61.7503693 C41.7385686,61.7503693 40.210494,61.7961591 38.7842697,61.88774 C37.3580453,61.979321 36.033714,62.1166904 34.811236,62.2998523 C33.7925043,62.4830142 32.4681729,62.5745938 30.8382022,62.5745938 L30.8382022,11.7474151 C33.690651,11.1979293 36.237442,10.7400314 38.4786517,10.3737075 C40.7198614,10.0073837 42.9101017,9.73264493 45.0494382,9.54948301 C47.1887747,9.36632109 49.4299508,9.22895171 51.7730337,9.13737075 C54.1161166,9.04578979 56.8157151,9 59.8719101,9 C69.6517343,9 79.2786043,9.96158566 88.752809,11.8847858 C98.2270137,13.807986 106.733296,16.9674817 114.27191,21.3633678 C121.810525,25.7592539 127.922823,31.6203474 132.608989,38.9468242 C137.295155,46.273301 139.638202,55.2481005 139.638202,65.8714919 C139.638202,70.8168637 139.026972,75.7163716 137.804494,80.5701625 C136.582016,85.4239534 134.697391,90.6897796 132.150562,96.3677991 C129.603733,102.045819 126.34384,108.4106 122.370787,115.462334 C118.397733,122.514068 113.762573,130.710441 108.465169,140.051699 L104.492135,146.920236 L143,146.920236 L125.579775,195 L7,195 L58.3438202,107.082718 Z M109.076404,173.020679 L111.826966,166.426883 L61.705618,166.426883 L96.2404494,107.632201 C99.9078835,101.221534 102.913097,94.9941218 105.25618,88.9497784 C107.599263,82.9054351 108.770787,76.7696028 108.770787,70.5420975 C108.770787,58.4534108 104.441242,49.2954521 95.7820225,43.0679468 C87.1228031,36.8404415 75.9678585,33.7267356 62.3168539,33.7267356 C61.7056149,33.7267356 61.1453209,33.7725254 60.6359551,33.8641064 C60.1265892,33.9556873 59.6681668,34.0014771 59.2606742,34.0014771 L58.3438202,34.0014771 L58.3438202,40.5952733 L59.2606742,40.5952733 C59.6681668,40.5952733 60.1265892,40.5494835 60.6359551,40.4579025 C61.1453209,40.3663216 61.7056149,40.3205318 62.3168539,40.3205318 C73.9303951,40.3205318 83.2516502,42.93055 90.2808989,48.1506647 C97.3101475,53.3707794 100.824719,60.9260953 100.824719,70.816839 C100.824719,75.9453728 99.8060027,81.3027786 97.7685393,86.8892171 C95.731076,92.4756557 92.87867,98.4741186 89.211236,104.884786 L49.1752809,173.020679 L109.076404,173.020679 Z" id="2"></path>
        </g>
    </g>
</svg>
