<?xml version="1.0" encoding="UTF-8"?>
<?xml-stylesheet type="text/css" href="../../css/master.css" ?>
<svg id="svg__num-three" width="131px" height="208px" viewBox="0 0 131 208" version="1.1" xmlns="http://www.w3.org/2000/svg" xmlns:xlink="http://www.w3.org/1999/xlink">
    <!-- Generator: Sketch 45.1 (43504) - http://www.bohemiancoding.com/sketch -->
    <title>num-03</title>
    <desc>Decorative Number 3</desc>
    <defs></defs>
    <g id="font-images" stroke="none" stroke-width="1" fill="none" fill-rule="evenodd">
        <g id="num-03" fill="#464C66">
            <path d="M10,146.979502 C12.2440914,147.350417 14.3351451,147.535871 16.273224,147.535871 L21.9344262,147.535871 C28.462692,147.535871 33.9198323,146.933144 38.3060109,145.727672 C42.6921895,144.5222 46.1602787,142.899473 48.7103825,140.859444 C51.2604863,138.819414 53.0965336,136.547597 54.2185792,134.043924 C55.3406249,131.540251 55.9016393,128.897525 55.9016393,126.115666 C55.9016393,122.221064 54.4736026,118.511975 51.6174863,114.988287 C48.7613701,111.464599 45.1912783,108.219146 40.9071038,105.25183 C36.6229294,102.284514 32.0328114,99.6417881 27.136612,97.3235725 C22.2404127,95.0053569 17.8542999,93.0117214 13.9781421,91.3426061 C17.4462833,89.3025764 20.9143725,87.1698501 24.3825137,84.9443631 C27.8506549,82.7188761 30.9617349,80.4470589 33.715847,78.1288433 C36.4699591,75.8106277 38.6630155,73.5388105 40.295082,71.3133236 C41.9271484,69.0878366 42.7431694,66.9551102 42.7431694,64.9150805 C42.7431694,61.5768501 41.366134,59.3050329 38.6120219,58.0995608 C35.8579097,56.8940887 32.8488323,56.2913616 29.5846995,56.2913616 C24.4844918,56.2913616 19.8943738,56.7549978 15.8142077,57.682284 L10,59.0732064 L10,12.3382138 L20.0983607,10.6691069 C23.5665019,10.2981924 27.9016133,9.92728346 33.1038251,9.55636896 C38.3060369,9.18545447 44.4771956,9 51.6174863,9 C71.8143086,9 86.604689,13.1263619 95.989071,21.3792094 C105.373453,29.6320569 110.065574,40.4347795 110.065574,53.7877013 C110.065574,58.4241325 109.249553,62.6432216 107.617486,66.4450952 C105.98542,70.2469687 104.149373,73.5387855 102.10929,76.3206442 C101.089248,77.9897594 99.9162179,79.5661224 98.5901639,81.0497804 C97.2641099,82.5334384 95.8870745,84.0170741 94.4590164,85.5007321 C97.1111244,87.3553045 99.5591873,89.34894 101.803279,91.4816984 C104.04737,93.6144567 106.189425,95.8862739 108.229508,98.2972182 C111.697649,102.562735 114.859731,107.662733 117.715847,113.597365 C120.571963,119.531996 122,126.208357 122,133.626647 C122,145.124996 119.398933,155.000447 114.196721,163.253294 C108.99451,171.506142 102.00733,178.27523 93.2349727,183.560761 C84.4626155,188.846293 74.3133545,192.740837 62.7868852,195.24451 C51.260416,197.748182 39.2751078,199 26.8306011,199 L19.6393443,199 C16.8852321,199 13.6721495,198.907273 10,198.721816 L10,146.979502 Z M35.3989071,176.467057 C43.355231,176.467057 50.7504212,175.447058 57.5846995,173.407028 C64.4189777,171.366998 70.4371325,168.399727 75.6393443,164.505124 C80.8415561,160.610522 84.921661,155.927797 87.8797814,150.456808 C90.8379019,144.985819 92.3169399,138.726731 92.3169399,131.679356 C92.3169399,123.148322 89.9708796,115.544689 85.2786885,108.868228 C80.5864975,102.191767 72.6302929,95.0517706 61.4098361,87.4480234 C68.9581434,80.9570198 74.0072732,75.4397494 76.557377,70.8960469 C79.1074809,66.3523443 80.3825137,61.669619 80.3825137,56.8477306 C80.3825137,49.0585262 77.169431,43.0776197 70.7431694,38.9048316 C64.3169078,34.7320436 56.819715,32.6456808 48.2513661,32.6456808 C46.2112831,32.6456808 44.3752358,32.6920444 42.7431694,32.7847731 C41.111103,32.8775017 39.6830662,33.0165925 38.4590164,33.2020498 L34.4808743,33.7584187 L34.4808743,39.8784773 C35.7049242,39.8784773 36.826953,39.7857501 37.8469945,39.6002928 C38.8670361,39.4148356 40.2950728,39.2757447 42.1311475,39.1830161 C43.9672223,39.0902875 46.0072748,39.0439239 48.2513661,39.0439239 C55.3916568,39.0439239 61.2058063,40.6202868 65.6939891,43.77306 C70.1821718,46.9258332 72.4262295,51.4694676 72.4262295,57.4040996 C72.4262295,62.7823597 70.4881797,67.8359939 66.6120219,72.5651537 C62.735864,77.2943135 57.2277224,82.440675 50.0874317,88.0043924 C56.0036726,91.7135373 61.154805,95.2371722 65.5409836,98.5754026 C69.9271622,101.913633 73.497254,105.251813 76.2513661,108.590044 C79.0054783,111.928274 81.0455307,115.451909 82.3715847,119.161054 C83.6976387,122.870199 84.3606557,127.042925 84.3606557,131.679356 C84.3606557,137.799445 83.085623,143.223988 80.5355191,147.953148 C77.9854153,152.682308 74.4663248,156.669579 69.9781421,159.915081 C65.4899593,163.160582 60.2878256,165.617854 54.3715847,167.286969 C48.4553438,168.956084 42.1311812,169.79063 35.3989071,169.79063 L33.5628415,169.79063 L33.5628415,176.467057 L35.3989071,176.467057 Z" id="3"></path>
        </g>
    </g>
</svg>
