<?xml version="1.0" encoding="UTF-8"?>
<?xml-stylesheet type="text/css" href="../../css/master.css" ?>
<svg id="svg__work" class="svg__title" width="638px" height="186px" viewBox="0 0 638 186" version="1.1" xmlns="http://www.w3.org/2000/svg" xmlns:xlink="http://www.w3.org/1999/xlink">
    <!-- Generator: Sketch 45.1 (43504) - http://www.bohemiancoding.com/sketch -->
    <title>title-work</title>
    <desc>Title SVG for Work</desc>
    <defs></defs>
    <g id="font-images" stroke="none" stroke-width="1" fill="none" fill-rule="evenodd">
        <g id="title-work" fill="#F5F5F5">
            <path d="M9,12.84 L56.8524674,12.84 L73.1561842,68.76 L89.459901,12.84 L120.373442,12.84 L136.677159,68.76 L152.980875,12.84 L200.833343,12.84 L154.251295,172.92 L119.103022,172.92 L104.916671,124.44 L90.7303205,172.92 L55.5820479,172.92 L9,12.84 Z M200.774527,93 C200.774527,81.4799424 202.715426,70.6000512 206.597283,60.36 C210.47914,50.1199488 215.772501,41.200038 222.477527,33.6 C229.182552,25.999962 237.052016,20.000022 246.086156,15.6 C255.120295,11.199978 264.718924,9 274.882331,9 C285.045737,9 294.644366,11.199978 303.678506,15.6 C312.712645,20.000022 320.582109,25.999962 327.287135,33.6 C333.99216,41.200038 339.285521,50.1199488 343.167378,60.36 C347.049235,70.6000512 348.990134,81.4799424 348.990134,93 C348.990134,104.520058 347.049235,115.399949 343.167378,125.64 C339.285521,135.880051 333.99216,144.799962 327.287135,152.4 C320.582109,160.000038 312.712645,165.999978 303.678506,170.4 C294.644366,174.800022 285.045737,177 274.882331,177 C264.718924,177 255.120295,174.800022 246.086156,170.4 C237.052016,165.999978 229.182552,160.000038 222.477527,152.4 C215.772501,144.799962 210.47914,135.880051 206.597283,125.64 C202.715426,115.399949 200.774527,104.520058 200.774527,93 Z M245.239209,93 C245.239209,97.6400232 246.015569,101.99998 247.568312,106.08 C249.121054,110.16002 251.238399,113.719985 253.920409,116.76 C256.602419,119.800015 259.743147,122.199991 263.342687,123.96 C266.942227,125.720009 270.788736,126.6 274.882331,126.6 C278.975925,126.6 282.822434,125.720009 286.421974,123.96 C290.021514,122.199991 293.162242,119.800015 295.844252,116.76 C298.526262,113.719985 300.643607,110.16002 302.19635,106.08 C303.749092,101.99998 304.525452,97.6400232 304.525452,93 C304.525452,88.3599768 303.749092,84.0000204 302.19635,79.92 C300.643607,75.8399796 298.526262,72.2800152 295.844252,69.24 C293.162242,66.1999848 290.021514,63.8000088 286.421974,62.04 C282.822434,60.2799912 278.975925,59.4 274.882331,59.4 C270.788736,59.4 266.942227,60.2799912 263.342687,62.04 C259.743147,63.8000088 256.602419,66.1999848 253.920409,69.24 C251.238399,72.2800152 249.121054,75.8399796 247.568312,79.92 C246.015569,84.0000204 245.239209,88.3599768 245.239209,93 Z M367.987611,12.84 L416.687024,12.84 C425.721164,12.84 434.084675,14.1999864 441.777809,16.92 C449.470944,19.6400136 456.140579,23.6399736 461.786916,28.92 C467.433253,34.2000264 471.844388,40.7199612 475.020453,48.48 C478.196517,56.2400388 479.784526,65.1599496 479.784526,75.24 C479.784526,83.24004 478.796432,90.039972 476.820214,95.64 C474.843996,101.240028 472.656073,105.879982 470.25638,109.56 C467.433211,113.720021 464.257194,117.239986 460.728233,120.12 L487.195306,172.92 L434.261161,172.92 L413.087503,132.36 L413.087503,172.92 L367.987611,172.92 L367.987611,12.84 Z M413.087503,91.56 L415.416605,91.56 C420.780625,91.56 425.332916,90.2000136 429.073615,87.48 C432.814313,84.7599864 434.684634,80.200032 434.684634,73.8 C434.684634,67.399968 432.814313,62.8400136 429.073615,60.12 C425.332916,57.3999864 420.780625,56.04 415.416605,56.04 L413.087503,56.04 L413.087503,91.56 Z M498.782002,12.84 L544.517104,12.84 L544.517104,49.8 L571.195913,12.84 L626.459161,12.84 L576.701064,86.04 L629,172.92 L574.583699,172.92 L544.517104,123.48 L544.517104,172.92 L498.782002,172.92 L498.782002,12.84 Z"></path>
        </g>
    </g>
</svg>
