<?xml version="1.0" encoding="UTF-8"?>
<?xml-stylesheet type="text/css" href="../../css/master.css" ?>
<svg id="svg__skills" class="svg__title" width="611px" height="168px" viewBox="0 0 611 168" version="1.1" xmlns="http://www.w3.org/2000/svg" xmlns:xlink="http://www.w3.org/1999/xlink">
    <!-- Generator: Sketch 45.1 (43504) - http://www.bohemiancoding.com/sketch -->
    <title>title-skills</title>
    <desc>Title SVG for Skills</desc>
    <defs></defs>
    <g id="font-images" stroke="none" stroke-width="1" fill="none" fill-rule="evenodd">
        <g id="title-skills" fill="#F5F5F5">
            <path d="M9.41157531,111 C12.4298094,112.000005 15.5851886,112.785711 18.8778076,113.357143 C21.6216567,114.071432 24.7427383,114.642855 28.241146,115.071429 C31.7395536,115.500002 35.2722064,115.714286 38.8392103,115.714286 C45.1500634,115.714286 48.3054426,113.285739 48.3054426,108.428571 C48.3054426,106.571419 47.3451098,104.678581 45.4244154,102.75 C43.5037209,100.821419 41.0685914,98.6785832 38.1189535,96.3214286 C35.1693157,93.9642739 32.0139365,91.3571571 28.6527213,88.5 C25.2915061,85.6428429 22.1361269,82.3571614 19.186489,78.6428571 C16.2368512,74.9285529 13.8017216,70.7500232 11.8810272,66.1071429 C9.9603328,61.4642625 9,56.1428871 9,50.1428571 C9,43.4285379 10.1661184,37.5000257 12.4983902,32.3571429 C14.830662,27.21426 18.0546363,22.9285886 22.1704101,19.5 C26.2861838,16.0714114 31.1221454,13.4642946 36.6784399,11.6785714 C42.2347344,9.89284821 48.1682192,9 54.4790723,9 C57.7716913,9 61.0642609,9.17856964 64.3568798,9.53571429 C67.6494988,9.89285893 70.5990924,10.2142843 73.2057491,10.5 C76.2239832,10.9285736 79.1735768,11.3571407 82.0546184,11.7857143 L82.0546184,51.8571429 C80.9570787,51.714285 79.7223651,51.5714293 78.3504405,51.4285714 C77.2529009,51.2857136 76.0181873,51.1428579 74.6462627,51 C73.2743381,50.8571421 71.8338389,50.7857143 70.3247219,50.7857143 C69.5015672,50.7857143 68.4726392,50.8214282 67.237907,50.8928571 C66.0031749,50.9642861 64.8370565,51.1428557 63.7395169,51.4285714 C62.6419772,51.7142871 61.6816444,52.2142821 60.8584897,52.9285714 C60.0353349,53.6428607 59.6237637,54.6428507 59.6237637,55.9285714 C59.6237637,57.0714343 60.5497989,58.4999914 62.4018971,60.2142857 C64.2539953,61.92858 66.5176369,63.92856 69.1928898,66.2142857 C71.8681427,68.5000114 74.8177363,71.1428421 78.041759,74.1428571 C81.2657818,77.1428721 84.2153754,80.5714093 86.8906283,84.4285714 C89.5658812,88.2857336 91.8295228,92.6428329 93.681621,97.5 C95.5337192,102.357167 96.4597544,107.785684 96.4597544,113.785714 C96.4597544,120.07146 95.4994216,125.964258 93.5787272,131.464286 C91.6580328,136.964313 88.6741416,141.74998 84.6269641,145.821429 C80.5797866,149.892877 75.400849,153.107131 69.089996,155.464286 C62.7791429,157.82144 55.3022661,159 46.6591413,159 C41.4458279,159 36.6098663,158.750002 32.1511115,158.25 C27.6923566,157.749998 23.7481326,157.142861 20.3183212,156.428571 C16.3397399,155.714282 12.7041943,154.857148 9.41157531,153.857143 L9.41157531,111 Z M112.865604,12.4285714 L157.315738,12.4285714 L157.315738,45.4285714 L183.244983,12.4285714 L236.955561,12.4285714 L188.595462,77.7857143 L239.425013,155.357143 L186.537585,155.357143 L157.315738,111.214286 L157.315738,155.357143 L112.865604,155.357143 L112.865604,12.4285714 Z M250.686171,12.4285714 L297.194181,12.4285714 L297.194181,155.357143 L250.686171,155.357143 L250.686171,12.4285714 Z M318.744722,12.4285714 L364.429582,12.4285714 L364.429582,117.857143 L402.294511,117.857143 L402.294511,155.357143 L318.744722,155.357143 L318.744722,12.4285714 Z M416.642484,12.4285714 L462.327344,12.4285714 L462.327344,117.857143 L500.192273,117.857143 L500.192273,155.357143 L416.642484,155.357143 L416.642484,12.4285714 Z M514.951821,111 C517.970055,112.000005 521.125434,112.785711 524.418053,113.357143 C527.161902,114.071432 530.282984,114.642855 533.781392,115.071429 C537.279799,115.500002 540.812452,115.714286 544.379456,115.714286 C550.690309,115.714286 553.845688,113.285739 553.845688,108.428571 C553.845688,106.571419 552.885355,104.678581 550.964661,102.75 C549.043967,100.821419 546.608837,98.6785832 543.659199,96.3214286 C540.709561,93.9642739 537.554182,91.3571571 534.192967,88.5 C530.831752,85.6428429 527.676372,82.3571614 524.726735,78.6428571 C521.777097,74.9285529 519.341967,70.7500232 517.421273,66.1071429 C515.500578,61.4642625 514.540246,56.1428871 514.540246,50.1428571 C514.540246,43.4285379 515.706364,37.5000257 518.038636,32.3571429 C520.370908,27.21426 523.594882,22.9285886 527.710656,19.5 C531.826429,16.0714114 536.662391,13.4642946 542.218686,11.6785714 C547.77498,9.89284821 553.708465,9 560.019318,9 C563.311937,9 566.604506,9.17856964 569.897125,9.53571429 C573.189744,9.89285893 576.139338,10.2142843 578.745995,10.5 C581.764229,10.9285736 584.713822,11.3571407 587.594864,11.7857143 L587.594864,51.8571429 C586.497324,51.714285 585.262611,51.5714293 583.890686,51.4285714 C582.793146,51.2857136 581.558433,51.1428579 580.186508,51 C578.814584,50.8571421 577.374085,50.7857143 575.864968,50.7857143 C575.041813,50.7857143 574.012885,50.8214282 572.778153,50.8928571 C571.543421,50.9642861 570.377302,51.1428557 569.279762,51.4285714 C568.182223,51.7142871 567.22189,52.2142821 566.398735,52.9285714 C565.575581,53.6428607 565.164009,54.6428507 565.164009,55.9285714 C565.164009,57.0714343 566.090045,58.4999914 567.942143,60.2142857 C569.794241,61.92858 572.057882,63.92856 574.733135,66.2142857 C577.408388,68.5000114 580.357982,71.1428421 583.582005,74.1428571 C586.806027,77.1428721 589.755621,80.5714093 592.430874,84.4285714 C595.106127,88.2857336 597.369768,92.6428329 599.221867,97.5 C601.073965,102.357167 602,107.785684 602,113.785714 C602,120.07146 601.039667,125.964258 599.118973,131.464286 C597.198278,136.964313 594.214387,141.74998 590.16721,145.821429 C586.120032,149.892877 580.941095,153.107131 574.630242,155.464286 C568.319389,157.82144 560.842512,159 552.199387,159 C546.986074,159 542.150112,158.750002 537.691357,158.25 C533.232602,157.749998 529.288378,157.142861 525.858567,156.428571 C521.879986,155.714282 518.24444,154.857148 514.951821,153.857143 L514.951821,111 Z" id="SKILLS"></path>
        </g>
    </g>
</svg>
