<?xml version="1.0" encoding="UTF-8"?>
<?xml-stylesheet type="text/css" href="../../css/master.css" ?>
<svg id="svg__about" class="svg__title" width="670px" height="168px" viewBox="0 0 670 168" version="1.1" xmlns="http://www.w3.org/2000/svg" xmlns:xlink="http://www.w3.org/1999/xlink">
    <!-- Generator: Sketch 45.1 (43504) - http://www.bohemiancoding.com/sketch -->
    <title>title-about</title>
    <desc>Title SVG for About</desc>
    <defs></defs>
    <g id="font-images" stroke="none" stroke-width="1" fill="none" fill-rule="evenodd">
        <g id="title-about" fill="#F5F5F5">
            <path d="M61.0548387,12.4285714 L93.9748948,12.4285714 L146.029734,155.357143 L102.82216,155.357143 L98.2956522,142.5 L56.7340813,142.5 L52.2075736,155.357143 L9,155.357143 L61.0548387,12.4285714 Z M86.7736325,111 L77.5148668,85.9285714 L68.256101,111 L86.7736325,111 Z M156.260098,12.4285714 L209.96094,12.4285714 C216.819319,12.4285714 223.094642,13.2499918 228.787097,14.8928571 C234.479552,16.5357225 239.348928,18.9642696 243.395372,22.1785714 C247.441815,25.3928732 250.596623,29.3928332 252.859888,34.1785714 C255.123153,38.9643096 256.254769,44.5713964 256.254769,51 C256.254769,55.5714514 255.706106,59.4642696 254.608766,62.6785714 C253.511425,65.8928732 252.345518,68.5714179 251.11101,70.7142857 C249.602166,73.2857271 247.887597,75.4285629 245.967251,77.1428571 C248.984938,79.1428671 251.728249,81.71427 254.197265,84.8571429 C256.254779,87.5714421 258.140805,90.9999793 259.8554,95.1428571 C261.569995,99.285735 262.427279,104.357113 262.427279,110.357143 C262.427279,117.21432 261.261372,123.428544 258.929523,129 C256.597674,134.571456 253.27141,139.321409 248.950631,143.25 C244.629852,147.178591 239.348979,150.178561 233.107854,152.25 C226.866729,154.321439 219.905578,155.357143 212.224194,155.357143 L156.260098,155.357143 L156.260098,12.4285714 Z M203.582679,121.714286 C214.007415,121.714286 219.219705,117.57147 219.219705,109.285714 C219.219705,100.999959 214.007415,96.8571429 203.582679,96.8571429 L198.64467,96.8571429 L198.64467,121.714286 L203.582679,121.714286 Z M213.870196,55.9285714 C213.870196,49.35711 210.441058,46.0714286 203.582679,46.0714286 L198.64467,46.0714286 L198.64467,65.7857143 L203.582679,65.7857143 C210.441058,65.7857143 213.870196,62.5000329 213.870196,55.9285714 Z M275.743899,84 C275.743899,73.7142343 277.629925,64.0000457 281.402034,54.8571429 C285.174142,45.71424 290.31785,37.7500339 296.83331,30.9642857 C303.34877,24.1785375 310.995749,18.8214482 319.774474,14.8928571 C328.5532,10.9642661 337.880456,9 347.756522,9 C357.632588,9 366.959844,10.9642661 375.738569,14.8928571 C384.517295,18.8214482 392.164273,24.1785375 398.679734,30.9642857 C405.195194,37.7500339 410.338901,45.71424 414.11101,54.8571429 C417.883118,64.0000457 419.769144,73.7142343 419.769144,84 C419.769144,94.2857657 417.883118,103.999954 414.11101,113.142857 C410.338901,122.28576 405.195194,130.249966 398.679734,137.035714 C392.164273,143.821462 384.517295,149.178552 375.738569,153.107143 C366.959844,157.035734 357.632588,159 347.756522,159 C337.880456,159 328.5532,157.035734 319.774474,153.107143 C310.995749,149.178552 303.34877,143.821462 296.83331,137.035714 C290.31785,130.249966 285.174142,122.28576 281.402034,113.142857 C277.629925,103.999954 275.743899,94.2857657 275.743899,84 Z M318.951473,84 C318.951473,88.1428779 319.705883,92.0356961 321.214727,95.6785714 C322.72357,99.3214468 324.781053,102.499986 327.387237,105.214286 C329.993421,107.928585 333.045354,110.071421 336.543128,111.642857 C340.040901,113.214294 343.778662,114 347.756522,114 C351.734382,114 355.472142,113.214294 358.969916,111.642857 C362.467689,110.071421 365.519622,107.928585 368.125806,105.214286 C370.731991,102.499986 372.789474,99.3214468 374.298317,95.6785714 C375.80716,92.0356961 376.561571,88.1428779 376.561571,84 C376.561571,79.8571221 375.80716,75.9643039 374.298317,72.3214286 C372.789474,68.6785532 370.731991,65.5000136 368.125806,62.7857143 C365.519622,60.071415 362.467689,57.9285793 358.969916,56.3571429 C355.472142,54.7857064 351.734382,54 347.756522,54 C343.778662,54 340.040901,54.7857064 336.543128,56.3571429 C333.045354,57.9285793 329.993421,60.071415 327.387237,62.7857143 C324.781053,65.5000136 322.72357,68.6785532 321.214727,72.3214286 C319.705883,75.9643039 318.951473,79.8571221 318.951473,84 Z M494.399369,159 C485.757811,159 477.939376,157.857154 470.943829,155.571429 C463.948282,153.285703 457.981581,149.857166 453.043548,145.285714 C448.105515,140.714263 444.299172,134.928606 441.624404,127.928571 C438.949636,120.928536 437.612272,112.714333 437.612272,103.285714 L437.612272,12.4285714 L481.437097,12.4285714 L481.437097,101.357143 C481.437097,106.357168 482.431547,110.178558 484.420477,112.821429 C486.409407,115.464299 489.735671,116.785714 494.399369,116.785714 C499.063067,116.785714 502.389331,115.464299 504.378261,112.821429 C506.367191,110.178558 507.361641,106.357168 507.361641,101.357143 L507.361641,12.4285714 L551.392216,12.4285714 L551.392216,103.285714 C551.392216,112.714333 550.054852,120.928536 547.380084,127.928571 C544.705316,134.928606 540.864681,140.714263 535.858065,145.285714 C530.851448,149.857166 524.850456,153.285703 517.854909,155.571429 C510.859362,157.857154 503.040927,159 494.399369,159 Z M590.42763,49.9285714 L565.120337,49.9285714 L565.120337,12.4285714 L661,12.4285714 L661,49.9285714 L635.692707,49.9285714 L635.692707,155.357143 L590.42763,155.357143 L590.42763,49.9285714 Z"></path>
        </g>
    </g>
</svg>
